<svg width="1440" height="2140" viewBox="0 0 1440 2140" fill="none" xmlns="http://www.w3.org/2000/svg">
<g clip-path="url(#clip0_107_455)">
<g opacity="0.66">
<path d="M319 74H386L589 352V74H653V470H561L384 218V470H319V74Z" stroke="#A9D6F5" stroke-width="1.8"/>
<path d="M716 74H1034V116L846 470H745L928 153H716V74Z" stroke="#A9D6F5" stroke-width="1.8"/>
</g>
<path opacity="0.2" d="M91.4443 1164.13C215.626 1227.23 296.198 1354.52 296.277 1496.85H296.218L296.225 1497.36C299.059 1699.92 124.118 1875.57 -81.0098 1870.61H-81.0156C-227.637 1868.87 -354.399 1784.07 -415.029 1656.19C-129.274 1718.73 145.638 1449.43 91.4443 1164.13ZM-495.374 897.374C-555.592 1130.57 -393.356 1379.94 -158.021 1420.71L-157.979 1420.72H-157.93C-110.836 1429.77 -59.0105 1430.8 -11.3174 1423.27C-124.504 1629.3 -434.692 1670.04 -597.059 1497.77L-597.069 1497.76L-597.082 1497.75L-599.188 1495.78C-687.846 1412.21 -718.441 1287.76 -698.796 1171.7C-679.051 1055.05 -608.565 946.939 -495.374 897.374ZM99.8135 868.412C217.005 847.114 343.659 877.802 430.155 969.775L430.166 969.787L430.178 969.799C517.487 1051.17 549.799 1171.77 533.81 1285.53C517.864 1398.98 453.89 1505.55 348.621 1559.56C368.052 1430.16 324.846 1296.64 238.173 1204.62L236.112 1202.45C135.284 1092.63 -27.7679 1043.2 -173.167 1077.88C-124.439 962.575 -17.0498 889.651 99.8135 868.412ZM-450.408 998.146C-451.177 620.019 57.3774 483.817 246 811.001C-48.6277 747.604 -326.39 1036.68 -253.898 1327.04C-373.696 1262.28 -450.408 1137.42 -450.408 998.146Z" stroke="#A9D6F5"/>
<g opacity="0.2">
<mask id="path-4-outside-1_107_455" maskUnits="userSpaceOnUse" x="902" y="1276" width="743" height="1048" fill="black">
<rect fill="white" x="902" y="1276" width="743" height="1048"/>
<path d="M1061.52 2323C1061.52 2232.57 1072.7 2145.19 1095.05 2060.85C1117.4 1975.5 1147.38 1894.73 1184.97 1818.52C1223.58 1741.3 1265.24 1669.67 1309.95 1603.62C1355.67 1536.56 1400.89 1476.61 1445.59 1423.78H903.012V1277.46H1643.73V1379.58C1608.16 1422.25 1571.08 1469.5 1532.47 1521.32C1493.86 1572.12 1456.77 1626.48 1421.21 1684.4C1385.65 1742.32 1353.64 1802.26 1325.19 1864.24C1297.76 1926.22 1275.91 1989.73 1259.65 2054.76C1243.4 2118.77 1235.27 2183.29 1235.27 2248.32V2323H1061.52Z"/>
</mask>
<path d="M1061.52 2323H1060.52V2324H1061.52V2323ZM1095.05 2060.85L1096.02 2061.11L1096.02 2061.11L1095.05 2060.85ZM1184.97 1818.52L1184.08 1818.07L1184.07 1818.08L1184.97 1818.52ZM1309.95 1603.62L1309.12 1603.06L1309.12 1603.06L1309.95 1603.62ZM1445.59 1423.78L1446.36 1424.42L1447.75 1422.78H1445.59V1423.78ZM903.012 1423.78H902.012V1424.78H903.012V1423.78ZM903.012 1277.46V1276.46H902.012V1277.46H903.012ZM1643.73 1277.46H1644.73V1276.46H1643.73V1277.46ZM1643.73 1379.58L1644.5 1380.22L1644.73 1379.94V1379.58H1643.73ZM1532.47 1521.32L1533.26 1521.93L1533.27 1521.92L1532.47 1521.32ZM1421.21 1684.4L1422.06 1684.92V1684.92L1421.21 1684.4ZM1325.19 1864.24L1324.28 1863.83L1324.27 1863.84L1325.19 1864.24ZM1259.65 2054.76L1260.62 2055L1260.62 2055L1259.65 2054.76ZM1235.27 2323V2324H1236.27V2323H1235.27ZM1061.52 2323H1062.52C1062.52 2232.65 1073.69 2145.36 1096.02 2061.11L1095.05 2060.85L1094.08 2060.6C1071.71 2145.02 1060.52 2232.49 1060.52 2323H1061.52ZM1095.05 2060.85L1096.02 2061.11C1118.35 1975.82 1148.3 1895.11 1185.87 1818.96L1184.97 1818.52L1184.07 1818.08C1146.45 1894.35 1116.45 1975.19 1094.08 2060.6L1095.05 2060.85ZM1184.97 1818.52L1185.87 1818.97C1224.46 1741.78 1266.1 1670.19 1310.78 1604.18L1309.95 1603.62L1309.12 1603.06C1264.39 1669.15 1222.71 1740.82 1184.08 1818.07L1184.97 1818.52ZM1309.95 1603.62L1310.77 1604.19C1356.48 1537.15 1401.68 1477.23 1446.36 1424.42L1445.59 1423.78L1444.83 1423.13C1400.1 1476 1354.86 1535.97 1309.12 1603.06L1309.95 1603.62ZM1445.59 1423.78V1422.78H903.012V1423.78V1424.78H1445.59V1423.78ZM903.012 1423.78H904.012V1277.46H903.012H902.012V1423.78H903.012ZM903.012 1277.46V1278.46H1643.73V1277.46V1276.46H903.012V1277.46ZM1643.73 1277.46H1642.73V1379.58H1643.73H1644.73V1277.46H1643.73ZM1643.73 1379.58L1642.96 1378.94C1607.38 1421.63 1570.29 1468.89 1531.67 1520.72L1532.47 1521.32L1533.27 1521.92C1571.87 1470.11 1608.95 1422.88 1644.5 1380.22L1643.73 1379.58ZM1532.47 1521.32L1531.67 1520.72C1493.04 1571.55 1455.93 1625.93 1420.36 1683.88L1421.21 1684.4L1422.06 1684.92C1457.61 1627.03 1494.67 1572.7 1533.26 1521.93L1532.47 1521.32ZM1421.21 1684.4L1420.36 1683.88C1384.77 1741.83 1352.75 1801.81 1324.28 1863.83L1325.19 1864.24L1326.1 1864.66C1354.53 1802.72 1386.52 1742.81 1422.06 1684.92L1421.21 1684.4ZM1325.19 1864.24L1324.27 1863.84C1296.82 1925.87 1274.95 1989.43 1258.68 2054.52L1259.65 2054.76L1260.62 2055C1276.87 1990.03 1298.69 1926.58 1326.1 1864.65L1325.19 1864.24ZM1259.65 2054.76L1258.68 2054.51C1242.41 2118.6 1234.27 2183.21 1234.27 2248.32H1235.27H1236.27C1236.27 2183.37 1244.39 2118.94 1260.62 2055L1259.65 2054.76ZM1235.27 2248.32H1234.27V2323H1235.27H1236.27V2248.32H1235.27ZM1235.27 2323V2322H1061.52V2323V2324H1235.27V2323Z" fill="url(#paint0_linear_107_455)" mask="url(#path-4-outside-1_107_455)"/>
</g>
</g>
<defs>
<linearGradient id="paint0_linear_107_455" x1="1045.01" y1="-1029.72" x2="2059.69" y2="-887.976" gradientUnits="userSpaceOnUse">
<stop stop-color="#00B4FD"/>
<stop offset="1" stop-color="#003ACE"/>
</linearGradient>
<clipPath id="clip0_107_455">
<rect width="1440" height="2140" fill="white"/>
</clipPath>
</defs>
</svg>
