<svg width="47" height="49" viewBox="0 0 47 49" fill="none" xmlns="http://www.w3.org/2000/svg">
<path d="M27.5303 25.6813C30.967 27.7838 33.1898 31.4737 33.334 35.5973L33.3408 36.0416C33.4328 42.6127 27.7455 48.3225 21.0918 48.1617L21.085 48.1608C16.6567 48.108 12.7881 45.7248 10.6816 42.0504C19.9757 43.389 28.5976 34.9497 27.5303 25.6813ZM6.39551 16.6451C4.97566 24.4948 10.5037 32.5542 18.3955 33.9215L18.4385 33.9293H18.4463C19.7495 34.1743 21.1514 34.2415 22.5039 34.1266C18.4878 40.0732 9.03227 41.0588 3.99805 35.7174L3.98633 35.7047L3.97363 35.694L3.70703 35.4371C1.00296 32.7471 0.0587785 28.8169 0.685547 25.1139C1.27712 21.619 3.25787 18.3891 6.39551 16.6451ZM27.2754 15.2633C31.1006 14.5682 35.2042 15.5741 37.9961 18.5426L38.0195 18.566C40.8339 21.189 41.8942 25.0957 41.3721 28.8112C40.894 32.2124 39.0967 35.3955 36.1816 37.2418C36.5292 32.9973 35.0015 28.7289 32.1416 25.7379C28.8369 22.1441 23.6374 20.4076 18.8174 21.2008C20.5331 17.9685 23.76 15.9022 27.2754 15.2633ZM9.08398 19.1705C9.05868 7.25391 24.6205 2.73293 31.1387 12.1871C21.6239 10.9216 12.9943 19.8907 14.5449 29.3014C11.3005 27.1605 9.22842 23.5804 9.09082 19.5944L9.08398 19.1705Z" stroke="url(#paint0_linear_1_590)"/>
<defs>
<linearGradient id="paint0_linear_1_590" x1="10.0491" y1="-37.7616" x2="56.4399" y2="-24.0174" gradientUnits="userSpaceOnUse">
<stop stop-color="white"/>
<stop offset="1" stop-color="#8B8B8B"/>
</linearGradient>
</defs>
</svg>
