<svg width="47" height="49" viewBox="0 0 47 49" fill="none" xmlns="http://www.w3.org/2000/svg">
<path d="M19.3779 35.6544H19.3789C21.955 35.651 24.5573 36.6456 26.5225 38.6124V38.6134L32.2363 44.3273L28.4238 48.1388L22.71 42.4249L22.5322 42.257C21.6317 41.4435 20.5172 41.0478 19.3799 41.0441H19.377C18.2377 41.0478 17.124 41.4434 16.2236 42.257L16.0469 42.4249L10.332 48.1388L6.51953 44.3273L12.2344 38.6134V38.6124C14.1995 36.6458 16.8037 35.651 19.3779 35.6544ZM10.2334 22.3263C12.2001 24.2913 13.1957 26.8947 13.1924 29.4689V29.4708C13.1955 31.8842 12.3209 34.3219 10.5908 36.2365L10.2334 36.6124L4.51953 42.3263L0.707031 38.5138L6.42188 32.799C7.34692 31.8698 7.79678 30.6829 7.80078 29.4698V29.4669C7.79678 28.2538 7.34701 27.066 6.42188 26.1368H6.4209L0.707031 20.423L4.51855 16.6115L10.2334 22.3263ZM38.0508 20.421L32.3369 26.1368C31.4113 27.0645 30.962 28.2522 30.958 29.4669V29.4698C30.962 30.6828 31.411 31.8699 32.3359 32.799L38.0508 38.5138L34.2412 42.3243L28.5264 36.6105L28.1689 36.2345C26.4392 34.3214 25.5642 31.8823 25.5674 29.4689V29.4679C25.564 26.8936 26.5596 24.2895 28.5264 22.3243L34.2402 16.6105L38.0508 20.421ZM32.2363 14.6085L26.5225 20.3234C24.5573 22.2902 21.955 23.2858 19.3789 23.2823H19.3779C16.9645 23.2855 14.525 22.4107 12.6104 20.6808L12.2344 20.3234L6.51953 14.6085L10.3311 10.797L16.0449 16.5109V16.5118C16.9737 17.4366 18.1614 17.8877 19.375 17.8917H19.3779C20.5911 17.8877 21.7788 17.439 22.708 16.5118V16.5109L28.4229 10.795L32.2363 14.6085Z" stroke="url(#paint0_linear_1_625)"/>
<defs>
<linearGradient id="paint0_linear_1_625" x1="9.27389" y1="-30.7795" x2="52.0744" y2="-18.0777" gradientUnits="userSpaceOnUse">
<stop stop-color="white"/>
<stop offset="1" stop-color="#8B8B8B"/>
</linearGradient>
</defs>
</svg>
