<svg width="47" height="49" viewBox="0 0 47 49" fill="none" xmlns="http://www.w3.org/2000/svg">
<path d="M35.2429 10.4929C36.0572 10.4929 36.8155 10.602 37.5046 10.8396C38.1062 11.0471 38.6549 11.3577 39.1208 11.7703L39.3162 11.9539C39.8226 12.4584 40.1931 13.0772 40.4304 13.7654C40.6383 14.3684 40.7472 15.0243 40.7712 15.7244L40.7771 16.0271C40.7667 18.7335 39.6058 22.0352 37.5427 25.6462C36.8248 26.8969 35.9955 28.1801 35.0662 29.4783L34.9617 29.6238L35.0662 29.7693C35.9945 31.064 36.8233 32.3478 37.5408 33.5974V33.5984C39.6042 37.2099 40.766 40.5142 40.7742 43.2185L40.7693 43.5212C40.7452 44.2213 40.6364 44.8773 40.4285 45.4802H40.4275C40.1925 46.1675 39.8211 46.7868 39.3162 47.2917C38.8115 47.7963 38.1927 48.1658 37.5046 48.4031C36.8155 48.6407 36.0572 48.7488 35.2429 48.7488C32.7054 48.7391 29.6442 47.7201 26.2957 45.8923L25.6228 45.5164C24.3722 44.7985 23.0875 43.9689 21.7917 43.0398L21.6462 42.9353L21.5007 43.0398C20.2048 43.969 18.9194 44.7984 17.6687 45.5164C14.0571 47.5798 10.7529 48.7407 8.04858 48.7488C7.23457 48.7487 6.47678 48.6406 5.78784 48.4031H5.78687C5.0997 48.1681 4.48121 47.7966 3.97632 47.2917L3.97534 47.2908C3.46908 46.7863 3.0993 46.1681 2.86206 45.4802C2.62453 44.7914 2.5155 44.0334 2.51538 43.2195C2.52486 40.6838 3.54494 37.6202 5.3728 34.2712L5.74878 33.5984C6.46658 32.3479 7.29614 31.0654 8.22534 29.7673L8.32983 29.6218L8.22534 29.4753C7.29631 28.1796 6.46663 26.8949 5.74878 25.6443H5.7478C3.68484 22.0333 2.52377 18.7291 2.51538 16.0251C2.51538 15.2109 2.6245 14.4525 2.86206 13.7634C3.09931 13.0774 3.47091 12.4564 3.97534 11.9539L3.97632 11.9529C4.48083 11.4465 5.09978 11.0769 5.78784 10.8396C6.47675 10.6021 7.2346 10.493 8.04858 10.4929C10.7551 10.5031 14.0573 11.6631 17.6687 13.7263C18.9193 14.4442 20.2026 15.2736 21.5007 16.2029L21.6462 16.3074L21.7917 16.2029C22.7634 15.5062 23.729 14.8655 24.6785 14.2859L25.6228 13.7263C29.2343 11.663 32.5387 10.5012 35.2429 10.4929ZM8.97925 31.0349C8.21369 32.1312 7.52397 33.214 6.91968 34.2683C4.92604 37.7296 3.85598 40.9256 3.86401 43.2175C3.86189 43.9112 3.95819 44.5235 4.13647 45.0408C4.31531 45.5616 4.57644 45.9885 4.92847 46.3406L4.93042 46.3416C5.28382 46.6904 5.70744 46.9516 6.22827 47.1326L6.22925 47.1335C6.7469 47.3119 7.35912 47.406 8.05151 47.406C10.305 47.4141 13.4348 46.3752 16.8347 44.4421L16.8386 44.446L17.0027 44.3523C18.0571 43.748 19.1397 43.0583 20.2361 42.2927L20.5154 42.0984L20.2458 41.8904C18.3149 40.3984 16.3727 38.6909 14.4753 36.7957H14.4763C12.5791 34.8984 10.8737 32.9562 9.38159 31.0251L9.17358 30.7566L8.97925 31.0349ZM33.9167 31.0212C32.4247 32.9522 30.7173 34.8944 28.822 36.7917C26.9249 38.6889 24.9825 40.3935 23.0515 41.8855L22.783 42.0935L23.0613 42.2888C24.1576 43.0544 25.2391 43.744 26.2937 44.3484V44.3474C29.7553 46.3411 32.951 47.4104 35.2429 47.4021C35.9347 47.4021 36.5474 47.3116 37.0662 47.1306C37.5858 46.95 38.0124 46.6911 38.365 46.3386L38.366 46.3376C38.6956 46.0058 38.9422 45.6118 39.1208 45.1355L39.1287 45.1326L39.1619 45.0369C39.318 44.5837 39.409 44.0579 39.4294 43.4695L39.4343 43.2136C39.4419 41.0669 38.502 38.124 36.7419 34.9109L36.3787 34.2644C35.7743 33.21 35.0847 32.1274 34.3191 31.031L34.1248 30.7517L33.9167 31.0212ZM21.4968 18.0906C19.4754 19.6212 17.4237 21.403 15.4265 23.4001C13.4293 25.3973 11.6476 27.449 10.1169 29.4705L10.0027 29.6218L10.1169 29.7722C11.6477 31.7938 13.4293 33.8462 15.4265 35.8435C17.4236 37.8406 19.4732 39.6223 21.4968 41.1531L21.6482 41.2673L21.7986 41.1531C23.8201 39.6224 25.8726 37.8407 27.8699 35.8435C29.8671 33.8463 31.6486 31.796 33.1794 29.7722L33.2937 29.6218L33.1794 29.4705C31.6488 27.449 29.867 25.3973 27.8699 23.4001C25.8726 21.4029 23.8201 19.6213 21.7986 18.0906L21.6482 17.9763L21.4968 18.0906ZM8.04858 11.8376C7.35646 11.8377 6.74478 11.9318 6.22729 12.1101H6.22632C5.70532 12.2911 5.28121 12.5526 4.92749 12.9041L4.92651 12.905C4.62078 13.2127 4.38182 13.5756 4.20581 14.0105L4.13452 14.2019C3.95613 14.7195 3.86212 15.3319 3.86206 16.0242C3.85375 18.2772 4.89058 21.407 6.823 24.8064L6.82007 24.8103L6.91577 24.9763C7.52004 26.0306 8.20884 27.1134 8.97437 28.2097L9.16968 28.489L9.37769 28.2195C10.8697 26.2886 12.5763 24.3462 14.4714 22.449C16.3686 20.5518 18.3109 18.8473 20.2419 17.3552L20.5115 17.1472L20.2322 16.9519C19.4099 16.3778 18.5953 15.8467 17.7947 15.3621L16.9988 14.8933C13.5368 12.8993 10.3406 11.8292 8.04858 11.8376ZM35.2429 11.8376C32.9897 11.8295 29.8593 12.8659 26.4597 14.7986L26.4568 14.7957L26.2917 14.8904C25.2372 15.4947 24.1539 16.1843 23.0574 16.95L22.7791 17.1453L23.0476 17.3533C24.9785 18.8452 26.9208 20.5518 28.8181 22.447C30.7153 24.3442 32.4207 26.2865 33.9128 28.2175L34.1208 28.4871L34.3152 28.2078C34.8892 27.3842 35.4204 26.5704 35.905 25.7703L36.3748 24.9744C38.244 21.729 39.3007 18.7169 39.4187 16.4646L39.4304 16.0242C39.4304 15.4185 39.3579 14.8744 39.2205 14.4011L39.158 14.2019C38.9791 13.681 38.7171 13.2542 38.365 12.9021L38.364 12.9011C38.0107 12.5523 37.5869 12.2911 37.0662 12.1101H37.0652C36.5475 11.9317 35.9354 11.8377 35.2429 11.8376Z" stroke="url(#paint0_linear_1_604)" stroke-width="0.5"/>
<defs>
<linearGradient id="paint0_linear_1_604" x1="11.5396" y1="-30.6272" x2="54.3414" y2="-17.9249" gradientUnits="userSpaceOnUse">
<stop stop-color="white"/>
<stop offset="1" stop-color="#8B8B8B"/>
</linearGradient>
</defs>
</svg>
