<svg width="440" height="233" viewBox="0 0 440 233" fill="none" xmlns="http://www.w3.org/2000/svg">
<mask id="mask0_1_981" style="mask-type:alpha" maskUnits="userSpaceOnUse" x="27" y="0" width="401" height="233">
<path d="M27.4022 232.073V0.000355089H63.9384L169.826 145.469C171.179 146.822 172.645 148.739 174.224 151.22C176.028 153.701 177.72 156.182 179.298 158.662C180.877 161.143 182.005 163.173 182.681 164.752H184.373C184.373 161.369 184.373 158.099 184.373 154.941C184.373 151.784 184.373 148.626 184.373 145.469V0.000355089H220.909V232.073H185.726L78.4853 84.9133C76.681 82.2069 74.4257 78.8239 71.7193 74.7644C69.0129 70.4792 66.9831 67.209 65.6299 64.9537H63.9384C63.9384 68.1112 63.9384 71.3814 63.9384 74.7644C63.9384 77.9218 63.9384 81.3048 63.9384 84.9133V232.073H27.4022ZM297.83 232.073C297.83 212.001 300.311 192.605 305.272 173.886C310.234 154.941 316.887 137.011 325.232 120.096C333.802 102.956 343.049 87.0559 352.972 72.3963C363.121 57.5111 373.158 44.2047 383.081 32.477H262.647V0.000355089H427.06V22.6664C419.166 32.1387 410.934 42.626 402.364 54.1281C393.794 65.4048 385.562 77.4708 377.668 90.3261C369.775 103.181 362.67 116.488 356.355 130.245C350.266 144.003 345.417 158.099 341.808 172.533C338.2 186.741 336.396 201.063 336.396 215.497V232.073H297.83Z" fill="#D9D9D9"/>
</mask>
<g mask="url(#mask0_1_981)">
<rect x="-99.47" y="-9.98242" width="680.725" height="301.868" fill="#01B4FD"/>
<g filter="url(#filter0_f_1_981)">
<circle cx="301.465" cy="179.508" r="125.72" fill="#013ACF"/>
</g>
<g filter="url(#filter1_f_1_981)" style="mix-blend-mode:color-dodge">
<circle cx="131.073" cy="173.017" r="63.7764" fill="#74F1AE"/>
</g>
</g>
<defs>
<filter id="filter0_f_1_981" x="75.7451" y="-46.2119" width="451.44" height="451.439" filterUnits="userSpaceOnUse" color-interpolation-filters="sRGB">
<feFlood flood-opacity="0" result="BackgroundImageFix"/>
<feBlend mode="normal" in="SourceGraphic" in2="BackgroundImageFix" result="shape"/>
<feGaussianBlur stdDeviation="50" result="effect1_foregroundBlur_1_981"/>
</filter>
<filter id="filter1_f_1_981" x="-32.7034" y="9.24023" width="327.553" height="327.553" filterUnits="userSpaceOnUse" color-interpolation-filters="sRGB">
<feFlood flood-opacity="0" result="BackgroundImageFix"/>
<feBlend mode="normal" in="SourceGraphic" in2="BackgroundImageFix" result="shape"/>
<feGaussianBlur stdDeviation="50" result="effect1_foregroundBlur_1_981"/>
</filter>
</defs>
</svg>
